<svg width="24" height="24" fill="none" xmlns="http://www.w3.org/2000/svg">
  <g clip-path="url(#clip0_275_1015)">
    <path d="M15 6.02127C14.6897 6.02127 14.3836 5.94906 14.106 5.81034L9.894 3.70434C9.6164 3.56562 9.31033 3.49341 9 3.49341M15 6.02127C15.3103 6.02127 15.6164 5.94906 15.894 5.81034L19.553 3.98034C19.7056 3.9041 19.8751 3.86815 20.0455 3.87591C20.2159 3.88367 20.3814 3.93488 20.5265 4.02467C20.6715 4.11446 20.7911 4.23985 20.874 4.38892C20.9569 4.53799 21.0003 4.70578 21 4.87634V17.6403C20.9999 17.826 20.9481 18.008 20.8505 18.1659C20.7528 18.3238 20.6131 18.4514 20.447 18.5343L15.894 20.8113C15.6164 20.9501 15.3103 21.0223 15 21.0223C14.6897 21.0223 14.3836 20.9501 14.106 20.8113L9.894 18.7053C9.6164 18.5666 9.31033 18.4944 9 18.4944C8.68967 18.4944 8.3836 18.5666 8.106 18.7053L4.447 20.5353C4.29436 20.6116 4.12473 20.6476 3.95426 20.6398C3.78379 20.632 3.61816 20.5807 3.47312 20.4907C3.32808 20.4008 3.20846 20.2753 3.12565 20.1261C3.04284 19.9769 2.99958 19.809 3 19.6383V6.87534C3.0001 6.68968 3.05189 6.50771 3.14956 6.34981C3.24722 6.19192 3.38692 6.06433 3.553 5.98134L8.106 3.70434C8.3836 3.56562 8.68967 3.49341 9 3.49341M15 6.02127L15 21.0212M9 3.49341L9 18.4934" stroke="white" stroke-width="2" stroke-linecap="round" stroke-linejoin="round"/>
  </g>
  <defs>
    <clipPath id="clip0_275_1015">
      <rect width="24" height="24" fill="white" transform="translate(0 0.257324)"/>
    </clipPath>
  </defs>
</svg>
