<svg width="24" height="24" fill="none" xmlns="http://www.w3.org/2000/svg">
  <path d="M20 7.25732H11M14 17.2573H5M14 17.2573C14 18.9142 15.3431 20.2573 17 20.2573C18.6569 20.2573 20 18.9142 20 17.2573C20 15.6005 18.6569 14.2573 17 14.2573C15.3431 14.2573 14 15.6005 14 17.2573ZM10 7.25732C10 8.91418 8.65685 10.2573 7 10.2573C5.34315 10.2573 4 8.91418 4 7.25732C4 5.60047 5.34315 4.25732 7 4.25732C8.65685 4.25732 10 5.60047 10 7.25732Z" stroke="white" stroke-width="2" stroke-linecap="round" stroke-linejoin="round"/>
</svg>
