<svg width="42" height="42" viewBox="0 0 42 42" fill="none" xmlns="http://www.w3.org/2000/svg">
<rect width="42" height="42" rx="21" fill="#222222"/>
<g clip-path="url(#clip0_247_1892)">
<path d="M20.8482 13.5669C20.8482 13.6507 20.9161 13.7187 21 13.7187C21.0839 13.7187 21.1518 13.6507 21.1518 13.5669H20.8482ZM20.8482 13.0083V13.5669H21.1518V13.0083H20.8482Z" fill="white"/>
<path d="M15.6018 15.8465C15.6611 15.9058 15.7572 15.9058 15.8165 15.8465C15.8758 15.7872 15.8758 15.6911 15.8165 15.6318L15.6018 15.8465ZM15.2381 15.4828L15.6018 15.8465L15.8165 15.6318L15.4528 15.2681L15.2381 15.4828Z" fill="white"/>
<path d="M13.552 21.3238C13.6358 21.3238 13.7038 21.2558 13.7038 21.1719C13.7038 21.0881 13.6358 21.0201 13.552 21.0201L13.552 21.3238ZM13.0137 21.3238L13.552 21.3238L13.552 21.0201L13.0137 21.0201L13.0137 21.3238Z" fill="white"/>
<path d="M28.4091 20.8953C28.3252 20.8953 28.2573 20.9633 28.2573 21.0471C28.2573 21.131 28.3252 21.199 28.4091 21.199V20.8953ZM28.9624 20.8953H28.4091V21.199H28.9624V20.8953Z" fill="white"/>
<path d="M26.2737 15.824C26.2144 15.8833 26.2144 15.9794 26.2737 16.0387C26.333 16.098 26.4291 16.098 26.4884 16.0387L26.2737 15.824ZM26.6962 15.4014L26.2737 15.824L26.4884 16.0387L26.911 15.6162L26.6962 15.4014Z" fill="white"/>
<path d="M29.5986 21.6485C29.8668 21.6687 30.1019 21.4677 30.1078 21.1988C30.1316 20.1078 29.9592 19.0199 29.5975 17.9875C29.182 16.8018 28.5257 15.7147 27.6699 14.7948C26.814 13.8749 25.7771 13.142 24.6244 12.6421C23.4716 12.1422 22.228 11.8862 20.9715 11.8901C19.715 11.894 18.473 12.1578 17.3234 12.6649C16.1738 13.172 15.1415 13.9114 14.2914 14.8367C13.4414 15.7619 12.7919 16.853 12.3838 18.0414C12.0286 19.076 11.863 20.1649 11.8936 21.2558C11.9012 21.5246 12.1376 21.7242 12.4056 21.7023C12.6736 21.6804 12.8716 21.4453 12.8658 21.1764C12.845 20.2196 12.9932 19.2653 13.3049 18.3577C13.6693 17.2963 14.2494 16.3219 15.0086 15.4955C15.7678 14.6692 16.6897 14.0088 17.7164 13.5559C18.7431 13.103 19.8524 12.8674 20.9745 12.8639C22.0967 12.8604 23.2074 13.0891 24.2369 13.5355C25.2665 13.982 26.1925 14.6366 26.9569 15.4581C27.7212 16.2797 28.3073 17.2505 28.6784 18.3096C28.9957 19.2152 29.1499 20.1686 29.1352 21.1255C29.131 21.3944 29.3305 21.6283 29.5986 21.6485Z" fill="white"/>
<path fill-rule="evenodd" clip-rule="evenodd" d="M21.2606 18.4794L25.8809 16.3506L22.6369 20.3403C22.5805 20.7521 22.37 21.1433 22.0169 21.4198C21.2964 21.9842 20.2548 21.8575 19.6904 21.137C19.1261 20.4165 19.2527 19.3749 19.9732 18.8105C20.3523 18.5137 20.8201 18.408 21.2606 18.4794Z" fill="white"/>
</g>
<defs>
<clipPath id="clip0_247_1892">
<rect width="19.3846" height="19.3846" fill="white" transform="translate(11.3076 11.3077)"/>
</clipPath>
</defs>
</svg>
