<svg width="54" height="374" viewBox="0 0 54 374" fill="none" xmlns="http://www.w3.org/2000/svg">
<mask id="path-1-inside-1_247_1906" fill="white">
<path d="M0 8C0 3.58172 3.58172 0 8 0H46C50.4183 0 54 3.58172 54 8V54H0V8Z"/>
</mask>
<path d="M0 8C0 3.58172 3.58172 0 8 0H46C50.4183 0 54 3.58172 54 8V54H0V8Z" fill="#222222"/>
<path d="M0 0H54H0ZM54 54.5H0V53.5H54V54.5ZM0 54V0V54ZM54 0V54V0Z" fill="url(#paint0_linear_247_1906)" mask="url(#path-1-inside-1_247_1906)"/>
<mask id="path-3-inside-2_247_1906" fill="white">
<path d="M0 54H54V108H0V54Z"/>
</mask>
<path d="M0 54H54V108H0V54Z" fill="#222222"/>
<path d="M54 107.5H0V108.5H54V107.5Z" fill="url(#paint1_linear_247_1906)" mask="url(#path-3-inside-2_247_1906)"/>
<mask id="path-5-inside-3_247_1906" fill="white">
<path d="M0 108H54V162H0V108Z"/>
</mask>
<path d="M0 108H54V162H0V108Z" fill="#222222"/>
<path d="M54 161.5H0V162.5H54V161.5Z" fill="url(#paint2_linear_247_1906)" mask="url(#path-5-inside-3_247_1906)"/>
<mask id="path-7-inside-4_247_1906" fill="white">
<path d="M0 162H54V216H0V162Z"/>
</mask>
<path d="M0 162H54V216H0V162Z" fill="#222222"/>
<path d="M54 215.5H0V216.5H54V215.5Z" fill="url(#paint3_linear_247_1906)" mask="url(#path-7-inside-4_247_1906)"/>
<mask id="path-9-inside-5_247_1906" fill="white">
<path d="M0 216H54V270H0V216Z"/>
</mask>
<path d="M0 216H54V270H0V216Z" fill="#222222"/>
<path d="M54 269.5H0V270.5H54V269.5Z" fill="url(#paint4_linear_247_1906)" mask="url(#path-9-inside-5_247_1906)"/>
<mask id="path-11-inside-6_247_1906" fill="white">
<path d="M0 270H54V324H0V270Z"/>
</mask>
<path d="M0 270H54V324H0V270Z" fill="#222222"/>
<path d="M54 323.5H0V324.5H54V323.5Z" fill="url(#paint5_linear_247_1906)" mask="url(#path-11-inside-6_247_1906)"/>
<path d="M0 324H54V366C54 370.418 50.4183 374 46 374H8C3.58172 374 0 370.418 0 366V324Z" fill="#222222"/>
<path d="M27.2933 335.667H26.7067C25.9994 335.667 25.3211 335.948 24.8211 336.448C24.321 336.948 24.04 337.626 24.04 338.333V338.573C24.0395 339.041 23.9161 339.5 23.6821 339.905C23.448 340.31 23.1117 340.646 22.7067 340.88L22.1333 341.213C21.728 341.447 21.2681 341.571 20.8 341.571C20.3319 341.571 19.8721 341.447 19.4667 341.213L19.2667 341.107C18.6548 340.754 17.9278 340.658 17.2453 340.84C16.5629 341.023 15.9807 341.469 15.6267 342.08L15.3333 342.587C14.9804 343.199 14.8846 343.926 15.0671 344.608C15.2496 345.29 15.6954 345.873 16.3067 346.227L16.5067 346.36C16.9097 346.593 17.2448 346.927 17.4787 347.329C17.7126 347.731 17.8372 348.188 17.84 348.653V349.333C17.8419 349.803 17.7195 350.265 17.4854 350.673C17.2513 351.08 16.9136 351.418 16.5067 351.653L16.3067 351.773C15.6954 352.127 15.2496 352.71 15.0671 353.392C14.8846 354.074 14.9804 354.801 15.3333 355.413L15.6267 355.92C15.9807 356.531 16.5629 356.977 17.2453 357.16C17.9278 357.342 18.6548 357.246 19.2667 356.893L19.4667 356.787C19.8721 356.553 20.3319 356.429 20.8 356.429C21.2681 356.429 21.728 356.553 22.1333 356.787L22.7067 357.12C23.1117 357.354 23.448 357.69 23.6821 358.095C23.9161 358.5 24.0395 358.959 24.04 359.427V359.667C24.04 360.374 24.321 361.052 24.8211 361.552C25.3211 362.052 25.9994 362.333 26.7067 362.333H27.2933C28.0006 362.333 28.6789 362.052 29.179 361.552C29.6791 361.052 29.96 360.374 29.96 359.667V359.427C29.9605 358.959 30.0839 358.5 30.318 358.095C30.552 357.69 30.8884 357.354 31.2933 357.12L31.8667 356.787C32.2721 356.553 32.7319 356.429 33.2 356.429C33.6681 356.429 34.128 356.553 34.5333 356.787L34.7333 356.893C35.3453 357.246 36.0722 357.342 36.7547 357.16C37.4371 356.977 38.0193 356.531 38.3733 355.92L38.6667 355.4C39.0197 354.788 39.1154 354.061 38.9329 353.379C38.7504 352.696 38.3046 352.114 37.6933 351.76L37.4933 351.653C37.0864 351.418 36.7488 351.08 36.5146 350.673C36.2805 350.265 36.1581 349.803 36.16 349.333V348.667C36.1581 348.197 36.2805 347.735 36.5146 347.327C36.7488 346.92 37.0864 346.582 37.4933 346.347L37.6933 346.227C38.3046 345.873 38.7504 345.29 38.9329 344.608C39.1154 343.926 39.0197 343.199 38.6667 342.587L38.3733 342.08C38.0193 341.469 37.4371 341.023 36.7547 340.84C36.0722 340.658 35.3453 340.754 34.7333 341.107L34.5333 341.213C34.128 341.447 33.6681 341.571 33.2 341.571C32.7319 341.571 32.2721 341.447 31.8667 341.213L31.2933 340.88C30.8884 340.646 30.552 340.31 30.318 339.905C30.0839 339.5 29.9605 339.041 29.96 338.573V338.333C29.96 337.626 29.6791 336.948 29.179 336.448C28.6789 335.948 28.0006 335.667 27.2933 335.667Z" stroke="white" stroke-width="1.21154" stroke-linecap="round" stroke-linejoin="round"/>
<path d="M27 353C29.2091 353 31 351.209 31 349C31 346.791 29.2091 345 27 345C24.7909 345 23 346.791 23 349C23 351.209 24.7909 353 27 353Z" stroke="white" stroke-width="1.21154" stroke-linecap="round" stroke-linejoin="round"/>
<defs>
<linearGradient id="paint0_linear_247_1906" x1="59.8904" y1="54" x2="-1.87053" y2="54" gradientUnits="userSpaceOnUse">
<stop stop-color="#222222"/>
<stop offset="0.52" stop-color="white"/>
<stop offset="1" stop-color="#222222"/>
</linearGradient>
<linearGradient id="paint1_linear_247_1906" x1="59.8904" y1="108" x2="-1.87053" y2="108" gradientUnits="userSpaceOnUse">
<stop stop-color="#222222"/>
<stop offset="0.52" stop-color="white"/>
<stop offset="1" stop-color="#222222"/>
</linearGradient>
<linearGradient id="paint2_linear_247_1906" x1="59.8904" y1="162" x2="-1.87053" y2="162" gradientUnits="userSpaceOnUse">
<stop stop-color="#222222"/>
<stop offset="0.52" stop-color="white"/>
<stop offset="1" stop-color="#222222"/>
</linearGradient>
<linearGradient id="paint3_linear_247_1906" x1="59.8904" y1="216" x2="-1.87053" y2="216" gradientUnits="userSpaceOnUse">
<stop stop-color="#222222"/>
<stop offset="0.52" stop-color="white"/>
<stop offset="1" stop-color="#222222"/>
</linearGradient>
<linearGradient id="paint4_linear_247_1906" x1="59.8904" y1="270" x2="-1.87053" y2="270" gradientUnits="userSpaceOnUse">
<stop stop-color="#222222"/>
<stop offset="0.52" stop-color="white"/>
<stop offset="1" stop-color="#222222"/>
</linearGradient>
<linearGradient id="paint5_linear_247_1906" x1="59.8904" y1="324" x2="-1.87053" y2="324" gradientUnits="userSpaceOnUse">
<stop stop-color="#222222"/>
<stop offset="0.52" stop-color="white"/>
<stop offset="1" stop-color="#222222"/>
</linearGradient>
</defs>
</svg>
