<!--?xml version="1.0" encoding="utf-8"?-->
<!-- Svg Vector Icons : http://www.onlinewebfonts.com/icon -->

<svg version="1.1" xmlns="http://www.w3.org/2000/svg" xmlns:xlink="http://www.w3.org/1999/xlink" x="0px" y="0px" viewBox="0 0 256 256" enable-background="new 0 0 256 256" xml:space="preserve">
<metadata> Svg Vector Icons : http://www.onlinewebfonts.com/icon </metadata>
<g><g><g><path fill="#ffffff" data-title="Layer 0" xs="0" d="M124.5,59.9c-103,45.8-112,49.9-113.2,51.7c-2.4,3.6-1.3,8.5,2.2,10.3c1.2,0.6,20.1,3.4,53.2,8.1c28.3,4,51.6,7.4,51.8,7.5c0.2,0.2,3.6,23.4,7.5,51.6c3.9,28.2,7.5,52,7.9,52.9c1.9,4.5,10,5.2,12.6,1c0.3-0.5,22.8-51.1,50-112.4C236.1,41.8,246,18.9,246,17c0-4.3-3-7.1-7.4-7C237,10.1,204.7,24.2,124.5,59.9z M223.6,33.2c-0.2,0.6-17.3,39.3-38.1,86.1c-20.8,46.7-38.6,86.7-39.4,88.8c-1,2.3-1.8,3.4-2,2.9c-0.2-0.5-2.8-19.2-5.9-41.5c-4-28.3-6-41.1-6.7-42.4c-0.5-1-1.9-2.2-3-2.7c-1.3-0.6-16.5-2.9-42.7-6.6c-22.3-3.1-40.8-5.7-41.2-5.8c-0.3-0.1,1-0.9,2.9-1.8c1.9-0.9,42.2-18.8,89.4-39.8c47.3-21,86.1-38.2,86.4-38.2C223.7,32.2,223.8,32.6,223.6,33.2z"/></g></g></g>
</svg>