<svg width="42" height="42" viewBox="0 0 42 42" fill="none" xmlns="http://www.w3.org/2000/svg">
<rect width="42" height="42" rx="21" fill="#222222"/>
<g clip-path="url(#clip0_405_1237)">
<path fill-rule="evenodd" clip-rule="evenodd" d="M29.9978 23.7736L21.5384 27.2936C21.3726 27.3626 21.186 27.3624 21.0203 27.2931L12.6034 23.7731C12.0525 23.5427 12.0525 22.7622 12.6034 22.5318L16.1993 21.0279L21.0203 23.0441C21.186 23.1134 21.3726 23.1136 21.5384 23.0446L26.3849 21.0279L29.9978 22.5313C30.5502 22.7612 30.5502 23.5437 29.9978 23.7736Z" fill="#D9D9D9"/>
<path d="M21.5384 27.2936L21.7322 27.7594L21.7322 27.7594L21.5384 27.2936ZM29.9978 23.7736L29.804 23.3077L29.804 23.3077L29.9978 23.7736ZM21.0203 27.2931L21.215 26.8276L21.215 26.8276L21.0203 27.2931ZM12.6034 23.7731L12.7981 23.3076L12.7981 23.3076L12.6034 23.7731ZM12.6034 22.5318L12.7981 22.9973L12.6034 22.5318ZM16.1993 21.0279L16.394 20.5624L16.1993 20.481L16.0046 20.5624L16.1993 21.0279ZM21.0203 23.0441L21.215 22.5786L21.215 22.5786L21.0203 23.0441ZM21.5384 23.0446L21.7322 23.5104L21.7322 23.5104L21.5384 23.0446ZM26.3849 21.0279L26.5787 20.5621L26.3849 20.4814L26.191 20.5621L26.3849 21.0279ZM29.9978 22.5313L29.804 22.9972L29.9978 22.5313ZM21.7322 27.7594L30.1916 24.2394L29.804 23.3077L21.3445 26.8277L21.7322 27.7594ZM20.8257 27.7586C21.1156 27.8799 21.442 27.8802 21.7322 27.7594L21.3445 26.8277C21.3031 26.845 21.2564 26.8449 21.215 26.8276L20.8257 27.7586ZM12.4087 24.2386L20.8257 27.7586L21.215 26.8276L12.7981 23.3076L12.4087 24.2386ZM12.4087 22.0663C11.4446 22.4695 11.4446 23.8354 12.4087 24.2386L12.7981 23.3076C12.6603 23.25 12.6603 23.0549 12.7981 22.9973L12.4087 22.0663ZM16.0046 20.5624L12.4087 22.0663L12.7981 22.9973L16.394 21.4935L16.0046 20.5624ZM16.0046 21.4935L20.8257 23.5096L21.215 22.5786L16.394 20.5624L16.0046 21.4935ZM20.8257 23.5096C21.1156 23.6309 21.442 23.6312 21.7322 23.5104L21.3445 22.5787C21.3031 22.596 21.2564 22.5959 21.215 22.5786L20.8257 23.5096ZM21.7322 23.5104L26.5787 21.4938L26.191 20.5621L21.3445 22.5787L21.7322 23.5104ZM30.1916 22.0654L26.5787 20.5621L26.191 21.4938L29.804 22.9972L30.1916 22.0654ZM30.1916 24.2394C31.1584 23.8372 31.1584 22.4677 30.1916 22.0654L29.804 22.9972C29.9421 23.0546 29.9421 23.2503 29.804 23.3077L30.1916 24.2394Z" fill="white"/>
<path d="M21.5385 22.919L29.998 19.399C30.5504 19.1692 30.5504 18.3866 29.998 18.1568L21.5385 14.6368C21.3727 14.5678 21.1862 14.5679 21.0205 14.6372L12.6036 18.1572C12.0526 18.3876 12.0526 19.1682 12.6036 19.3986L21.0205 22.9186C21.1862 22.9879 21.3727 22.988 21.5385 22.919Z" fill="url(#paint0_linear_405_1237)" fill-opacity="0.5" stroke="white" stroke-width="1.00916"/>
</g>
<defs>
<linearGradient id="paint0_linear_405_1237" x1="24.4319" y1="15.4213" x2="21.3051" y2="23.0269" gradientUnits="userSpaceOnUse">
<stop stop-color="#D9D9D9"/>
<stop offset="1" stop-color="#737373"/>
</linearGradient>
<clipPath id="clip0_405_1237">
<rect width="20.1831" height="20.1831" fill="white" transform="translate(11.3076 10.9082)"/>
</clipPath>
</defs>
</svg>
