<?xml version="1.0" encoding="iso-8859-1"?>
<!-- Uploaded to: SVG Repo, www.svgrepo.com, Generator: SVG Repo Mixer Tools -->
<svg height="800px" width="800px" version="1.1" id="Layer_1" xmlns="http://www.w3.org/2000/svg" xmlns:xlink="http://www.w3.org/1999/xlink" 
	 viewBox="0 0 512 512" xml:space="preserve">
<polygon style="fill:#36A1CB;" points="268.242,443.238 266.684,443.238 245.316,443.238 243.758,443.238 183.781,443.238 
	166.535,473.576 243.758,473.576 245.316,473.576 266.684,473.576 268.242,473.576 345.465,473.576 328.219,443.238 "/>
<path style="fill:#2393B5;" d="M202.313,482.264c-0.998-1.928-0.965-4.226,0.093-6.122l15.772-28.308
	c1.262-2.268,3.758-3.559,6.338-3.282l-26.259-2.811c-2.579-0.277-5.075,1.014-6.337,3.282l-15.773,28.308
	c-1.055,1.896-1.091,4.194-0.093,6.122c0.998,1.927,2.897,3.225,5.054,3.456l26.258,2.812
	C205.21,485.489,203.311,484.191,202.313,482.264z"/>
<path style="fill:#DFDBCC;" d="M390.766,253.912c9.308-19.458,14.522-41.233,14.522-64.203c0-82.318-66.971-149.288-149.288-149.288
	s-149.288,66.971-149.288,149.288S173.682,338.998,256,338.998c49.49,0,93.432-24.206,120.61-61.401"/>
<path style="fill:#CCC3A8;" d="M256,371.335c-100.149,0-181.625-81.476-181.625-181.625C74.375,89.561,155.851,8.084,256,8.084
	c100.147,0,181.625,81.477,181.625,181.625C437.625,289.859,356.147,371.335,256,371.335z M390.766,253.912
	c9.308-19.458,14.522-41.233,14.522-64.203c0-82.318-66.971-149.288-149.288-149.288s-149.288,66.971-149.288,149.288
	S173.682,338.998,256,338.998c49.49,0,93.432-24.206,120.61-61.401"/>
<path style="fill:#E5E2DC;" d="M372.452,291.535c4.173-4.455,8.084-9.154,11.693-14.092l14.156-23.684
	c9.308-19.458,14.522-41.233,14.522-64.203c0-72.705-52.246-133.426-121.162-146.62c-49.979,18.402-85.72,66.495-85.72,122.781
	c0,72.114,58.67,130.784,130.784,130.784C349.109,296.501,361.093,294.764,372.452,291.535z"/>
<path style="fill:#36A1CB;" d="M154.483,83.847l13.142,17.183c0,0-39.011,49.513-40.628,84.456h-16.707
	C110.289,185.486,115.14,121.885,154.483,83.847z"/>
<path style="fill:#4BAF78;" d="M253.712,39.741l-1.076,21.605c0,0-61.77,12.574-85.585,38.194l-12.75-10.797
	C154.301,88.743,199.105,43.342,253.712,39.741z"/>
<path style="fill:#FFB92E;" d="M361.181,81.511l-16.068,14.484c0,0-52.496-34.896-87.456-33.692l-1.345-16.653
	C256.312,45.65,320.097,45.361,361.181,81.511z"/>
<path style="fill:#EA6428;" d="M403.363,186.263l-21.56-1.761c0,0-10.606-62.136-35.457-86.753l11.196-12.4
	C357.541,85.348,401.496,131.571,403.363,186.263z"/>
<path style="fill:#E35F46;" d="M248.914,221.658c-0.042-0.018-0.091-0.029-0.135-0.046c-0.156-0.059-0.312-0.126-0.468-0.19
	c-0.154-0.061-0.307-0.121-0.459-0.189c-0.086-0.038-0.172-0.08-0.259-0.117c-0.215-0.099-0.429-0.198-0.64-0.303
	c-0.055-0.026-0.108-0.055-0.162-0.084c-0.234-0.12-0.468-0.244-0.695-0.374c-0.053-0.028-0.103-0.059-0.154-0.087
	c-0.221-0.128-0.44-0.259-0.652-0.393c-0.068-0.043-0.133-0.087-0.198-0.128c-0.192-0.125-0.382-0.251-0.564-0.382
	c-0.091-0.066-0.181-0.129-0.272-0.195c-0.152-0.112-0.305-0.226-0.457-0.342c-0.115-0.092-0.232-0.186-0.347-0.281
	c-0.117-0.094-0.232-0.19-0.345-0.285c-0.146-0.125-0.287-0.251-0.427-0.379c-0.08-0.074-0.162-0.15-0.245-0.224
	c-0.164-0.157-0.327-0.316-0.486-0.479c-0.053-0.054-0.11-0.11-0.164-0.166c-0.177-0.183-0.347-0.371-0.517-0.561
	c-0.038-0.045-0.078-0.088-0.115-0.134c-0.172-0.197-0.341-0.4-0.508-0.606c-0.038-0.047-0.075-0.094-0.112-0.141
	c-0.148-0.186-0.289-0.377-0.427-0.567c-0.055-0.077-0.113-0.153-0.166-0.231c-0.097-0.135-0.188-0.274-0.278-0.411
	c-0.093-0.14-0.19-0.279-0.278-0.421c-0.025-0.04-0.049-0.083-0.073-0.122c-3.331-5.414-3.863-12.376-0.791-18.469l0.324-0.642
	c1.181-2.14,2.8-4.087,4.838-5.7l67.244-53.14l-38.581,76.534c-1.171,2.32-2.752,4.294-4.612,5.883l-0.564,0.444
	C261.815,222.963,254.884,223.837,248.914,221.658z"/>
<path style="fill:#7C7A75;" d="M256,371.335c-6.185,0-12.297-0.314-18.324-0.919v72.823h36.648v-72.823
	C268.297,371.021,262.183,371.335,256,371.335z"/>
<path style="fill:#CCC3A8;" d="M419.926,503.916h70.48c7.461,0,13.509-6.048,13.509-13.509v-3.32
	c0-7.461-6.048-13.509-13.509-13.509h-81.2H102.793h-81.2c-7.461,0-13.509,6.048-13.509,13.509v3.32
	c0,7.461,6.048,13.509,13.509,13.509h81.2h289.825"/>
<path style="fill:#C9B585;" d="M37.896,490.25v-3.318c0-7.463,6.048-13.511,13.51-13.511h-0.719H29.129
	c-7.462,0-13.51,6.048-13.51,13.511v3.318c0,7.463,6.048,13.511,13.51,13.511h21.558h0.719
	C43.945,503.762,37.896,497.714,37.896,490.25z"/>
<g>
	<path style="fill:#231F20;" d="M256,347.082c49.999,0,97.527-24.192,127.137-64.716c2.633-3.606,1.848-8.663-1.758-11.296
		c-3.606-2.634-8.662-1.846-11.296,1.758c-26.577,36.37-69.225,58.086-114.082,58.086c-75.491,0-137.335-59.549-141.027-134.141
		h21.979c4.466,0,8.084-3.62,8.084-8.084c0-3.539-2.277-6.538-5.442-7.634c1.777-26.632,12.285-50.642,28.688-69.284
		c1.115,0.543,2.325,0.822,3.538,0.822c2.068,0,4.138-0.789,5.717-2.368c2.496-2.496,3.011-6.218,1.558-9.228
		c18.747-16.364,42.828-26.757,69.381-28.419c1.176,3.011,4.098,5.146,7.525,5.146c3.423,0,6.342-2.13,7.522-5.135
		c26.239,1.719,50.327,12.353,69.162,28.891c-1.176,2.917-0.582,6.379,1.781,8.743c1.579,1.578,3.649,2.368,5.717,2.368
		c1.041,0,2.083-0.202,3.061-0.601c16.608,18.736,27.357,42.76,29.161,69.066c-3.163,1.097-5.437,4.095-5.437,7.632
		c0,4.465,3.618,8.084,8.084,8.084h21.973c-0.913,18.707-5.454,36.725-13.549,53.651c-1.926,4.028-0.223,8.855,3.804,10.781
		c4.026,1.927,8.854,0.224,10.781-3.804c10.16-21.242,15.313-44.017,15.313-67.691c0-86.776-70.597-157.373-157.373-157.373
		S98.627,102.934,98.627,189.709S169.224,347.082,256,347.082z M151.133,95.256l5.577,5.577
		c-19.766,22.193-31.427,50.068-33.289,79.773h-8.324C117.19,147.897,130.462,118.183,151.133,95.256z M396.902,180.604h-8.324
		c-1.86-29.702-13.512-57.573-33.288-79.773l5.576-5.576C381.538,118.181,394.81,147.896,396.902,180.604z M343.837,89.419
		c-22.29-19.705-50.156-31.221-79.752-33v-7.677c32.599,1.85,62.271,14.807,85.288,35.14L343.837,89.419z M247.916,56.419
		c-29.589,1.78-57.461,13.298-79.751,33.002l-5.538-5.538c23.017-20.332,52.69-33.291,85.29-35.14V56.419z"/>
	<path style="fill:#231F20;" d="M316.035,129.606c-2.942-2.398-7.149-2.431-10.125-0.08l-67.249,53.143
		c-2.839,2.247-5.161,4.984-6.899,8.133c-0.047,0.087-0.094,0.175-0.139,0.263l-0.327,0.646c-4.251,8.432-3.834,18.276,1.118,26.333
		c0.036,0.059,0.077,0.127,0.102,0.168c0.112,0.179,0.227,0.355,0.345,0.529l0.086,0.128c0.12,0.183,0.244,0.366,0.372,0.548
		c0.071,0.102,0.151,0.212,0.251,0.349c0.189,0.259,0.38,0.516,0.579,0.77c0.057,0.073,0.119,0.152,0.198,0.249
		c0.237,0.294,0.477,0.583,0.723,0.863l0.019,0.022c0.055,0.065,0.11,0.127,0.165,0.19c0.235,0.26,0.47,0.516,0.703,0.759
		l0.216,0.22c0.222,0.226,0.446,0.447,0.675,0.664c0.047,0.045,0.095,0.089,0.143,0.134l0.244,0.223
		c0.195,0.178,0.389,0.351,0.591,0.525c0.032,0.028,0.116,0.099,0.151,0.127c0.141,0.117,0.283,0.236,0.429,0.352l0.378,0.305
		c0.035,0.028,0.07,0.055,0.106,0.082c0.191,0.146,0.383,0.29,0.637,0.475l0.334,0.239c0.262,0.185,0.532,0.366,0.806,0.546
		c0.04,0.026,0.058,0.038,0.098,0.064c0.037,0.024,0.16,0.105,0.197,0.127c0.3,0.19,0.607,0.375,0.99,0.596l0.12,0.068l0,0
		c0.315,0.181,0.638,0.354,0.961,0.521c0.114,0.061,0.227,0.12,0.342,0.176c0.275,0.137,0.555,0.267,0.834,0.397
		c0.044,0.02,0.069,0.031,0.113,0.052l0.246,0.111c0.234,0.105,0.471,0.201,0.803,0.334c0.181,0.075,0.363,0.149,0.53,0.212
		c0.105,0.04,0.21,0.078,0.318,0.114c2.963,1.07,6.064,1.614,9.218,1.614c6.047,0,11.993-2.068,16.729-5.813l0.564-0.444
		c0.084-0.066,0.166-0.134,0.247-0.203c2.737-2.336,4.952-5.159,6.583-8.394l38.581-76.534
		C319.85,136.122,318.974,132.004,316.035,129.606z M265.125,208.762c-0.637,1.263-1.491,2.368-2.538,3.285l-0.433,0.342
		c-1.934,1.53-4.256,2.338-6.714,2.338c-1.272,0-2.521-0.218-3.714-0.649c-0.046-0.017-0.093-0.034-0.14-0.051l-0.236-0.097
		c-0.019-0.008-0.092-0.037-0.111-0.044l-0.261-0.112l0,0c-0.128-0.059-0.257-0.116-0.383-0.179
		c-0.036-0.019-0.072-0.039-0.11-0.057c-0.122-0.063-0.245-0.125-0.363-0.193c-0.03-0.018-0.063-0.036-0.093-0.053
		c-0.013-0.008-0.027-0.016-0.042-0.024c-0.124-0.072-0.247-0.146-0.346-0.208l-0.123-0.08c-0.11-0.071-0.218-0.142-0.26-0.171
		l-0.686-0.517c-0.028-0.024-0.061-0.05-0.089-0.072l-0.511-0.451c-0.084-0.081-0.167-0.163-0.249-0.247
		c-0.015-0.015-0.107-0.107-0.121-0.122c-0.098-0.101-0.193-0.206-0.288-0.312c-0.027-0.032-0.056-0.066-0.084-0.098
		c-0.095-0.108-0.186-0.22-0.305-0.366c-0.017-0.022-0.033-0.043-0.051-0.065c-0.082-0.103-0.158-0.21-0.184-0.244l-0.117-0.162
		c-0.015-0.02-0.029-0.042-0.048-0.068l-0.245-0.366c0,0-0.022-0.032-0.039-0.059c-0.015-0.024-0.03-0.048-0.045-0.073
		c-1.996-3.244-2.168-7.205-0.46-10.589l0.247-0.492c0.689-1.213,1.601-2.274,2.711-3.152l38.551-30.465L265.125,208.762z"/>
	<path style="fill:#231F20;" d="M300.936,260.155c0-4.465-3.618-8.084-8.084-8.084h-73.297c-4.466,0-8.084,3.62-8.084,8.084
		c0,4.465,3.618,8.084,8.084,8.084h73.297C297.318,268.239,300.936,264.621,300.936,260.155z"/>
	<path style="fill:#231F20;" d="M237.676,280.301c-4.466,0-8.084,3.618-8.084,8.084c0,4.466,3.618,8.084,8.084,8.084h36.648
		c4.466,0,8.084-3.618,8.084-8.084c0-4.466-3.618-8.084-8.084-8.084H237.676z"/>
	<path style="fill:#231F20;" d="M490.407,465.492H350.169l-14.921-26.25c-1.437-2.529-4.121-4.09-7.029-4.09h-45.811v-57.581
		c92.149-12.892,163.301-92.217,163.301-187.862C445.709,85.103,360.606,0,256,0S66.291,85.103,66.291,189.709
		c0,95.645,71.152,174.97,163.301,187.862v57.581h-45.811c-2.907,0-5.592,1.561-7.029,4.09l-14.921,26.25H21.593
		C9.687,465.492,0,475.18,0,487.085v3.32C0,502.312,9.687,512,21.593,512h371.025c4.466,0,8.084-3.618,8.084-8.084
		s-3.618-8.084-8.084-8.084H21.593c-2.991,0-5.425-2.434-5.425-5.425v-3.32c0-2.991,2.434-5.425,5.425-5.425h144.941h178.93h144.941
		c2.991,0,5.425,2.434,5.425,5.425v3.32c0,2.991-2.434,5.425-5.425,5.425h-70.48c-4.466,0-8.084,3.618-8.084,8.084
		S415.46,512,419.926,512h70.48c11.906,0,21.593-9.687,21.593-21.593v-3.32C512,475.18,502.313,465.492,490.407,465.492z
		 M82.459,189.709C82.459,94.018,160.31,16.168,256,16.168s173.541,77.85,173.541,173.541c0,89.942-68.778,164.115-156.502,172.704
		c-11.291,1.104-22.792,1.104-34.083,0C151.235,353.822,82.459,279.65,82.459,189.709z M245.76,379.143
		c0.039,0.002,0.079,0.002,0.117,0.004c1.494,0.079,2.993,0.137,4.496,0.181c0.184,0.005,0.369,0.016,0.553,0.022
		c1.686,0.044,3.377,0.069,5.074,0.069c1.697,0,3.388-0.025,5.074-0.069c0.184-0.005,0.369-0.015,0.553-0.022
		c1.503-0.044,3.002-0.102,4.496-0.181c0.039-0.002,0.079-0.002,0.117-0.004v56.011h-20.48V379.143z M180.43,465.492l8.055-14.171
		h49.191h36.648h49.192l8.055,14.171H180.43z"/>
</g>
</svg>