<svg width="24" height="24" viewBox="0 0 24 24" fill="none" xmlns="http://www.w3.org/2000/svg">
<g clip-path="url(#clip0_315_7234)">
<path d="M9 10L11 12L15 8M20 10C20 14.993 14.461 20.193 12.601 21.799C12.4277 21.9293 12.2168 21.9998 12 21.9998C11.7832 21.9998 11.5723 21.9293 11.399 21.799C9.539 20.193 4 14.993 4 10C4 7.87827 4.84285 5.84344 6.34315 4.34315C7.84344 2.84285 9.87827 2 12 2C14.1217 2 16.1566 2.84285 17.6569 4.34315C19.1571 5.84344 20 7.87827 20 10Z" stroke="white" stroke-width="2" stroke-linecap="round" stroke-linejoin="round"/>
</g>
<defs>
<clipPath id="clip0_315_7234">
<rect width="24" height="24" fill="white"/>
</clipPath>
</defs>
</svg>
