<svg width="42" height="42" viewBox="0 0 42 42" fill="none" xmlns="http://www.w3.org/2000/svg">
<rect width="42" height="42" rx="21" fill="#222222"/>
<path d="M21 16.1539C21.4461 16.1539 21.8077 15.7922 21.8077 15.3462C21.8077 14.9001 21.4461 14.5385 21 14.5385C20.5539 14.5385 20.1923 14.9001 20.1923 15.3462C20.1923 15.7922 20.5539 16.1539 21 16.1539Z" stroke="white" stroke-width="1.5" stroke-linecap="round" stroke-linejoin="round"/>
<path d="M26.6538 16.1539C27.0999 16.1539 27.4615 15.7922 27.4615 15.3462C27.4615 14.9001 27.0999 14.5385 26.6538 14.5385C26.2078 14.5385 25.8461 14.9001 25.8461 15.3462C25.8461 15.7922 26.2078 16.1539 26.6538 16.1539Z" stroke="white" stroke-width="1.5" stroke-linecap="round" stroke-linejoin="round"/>
<path d="M15.3461 16.1539C15.7922 16.1539 16.1538 15.7922 16.1538 15.3462C16.1538 14.9001 15.7922 14.5385 15.3461 14.5385C14.9001 14.5385 14.5385 14.9001 14.5385 15.3462C14.5385 15.7922 14.9001 16.1539 15.3461 16.1539Z" stroke="white" stroke-width="1.5" stroke-linecap="round" stroke-linejoin="round"/>
<path d="M21 21.8077C21.4461 21.8077 21.8077 21.4461 21.8077 21C21.8077 20.5539 21.4461 20.1923 21 20.1923C20.5539 20.1923 20.1923 20.5539 20.1923 21C20.1923 21.4461 20.5539 21.8077 21 21.8077Z" stroke="white" stroke-width="1.5" stroke-linecap="round" stroke-linejoin="round"/>
<path d="M26.6538 21.8077C27.0999 21.8077 27.4615 21.4461 27.4615 21C27.4615 20.5539 27.0999 20.1923 26.6538 20.1923C26.2078 20.1923 25.8461 20.5539 25.8461 21C25.8461 21.4461 26.2078 21.8077 26.6538 21.8077Z" stroke="white" stroke-width="1.5" stroke-linecap="round" stroke-linejoin="round"/>
<path d="M15.3461 21.8077C15.7922 21.8077 16.1538 21.4461 16.1538 21C16.1538 20.5539 15.7922 20.1923 15.3461 20.1923C14.9001 20.1923 14.5385 20.5539 14.5385 21C14.5385 21.4461 14.9001 21.8077 15.3461 21.8077Z" stroke="white" stroke-width="1.5" stroke-linecap="round" stroke-linejoin="round"/>
<path d="M21 27.4615C21.4461 27.4615 21.8077 27.0999 21.8077 26.6539C21.8077 26.2078 21.4461 25.8462 21 25.8462C20.5539 25.8462 20.1923 26.2078 20.1923 26.6539C20.1923 27.0999 20.5539 27.4615 21 27.4615Z" stroke="white" stroke-width="1.5" stroke-linecap="round" stroke-linejoin="round"/>
<path d="M26.6538 27.4615C27.0999 27.4615 27.4615 27.0999 27.4615 26.6539C27.4615 26.2078 27.0999 25.8462 26.6538 25.8462C26.2078 25.8462 25.8461 26.2078 25.8461 26.6539C25.8461 27.0999 26.2078 27.4615 26.6538 27.4615Z" stroke="white" stroke-width="1.5" stroke-linecap="round" stroke-linejoin="round"/>
<path d="M15.3461 27.4615C15.7922 27.4615 16.1538 27.0999 16.1538 26.6539C16.1538 26.2078 15.7922 25.8462 15.3461 25.8462C14.9001 25.8462 14.5385 26.2078 14.5385 26.6539C14.5385 27.0999 14.9001 27.4615 15.3461 27.4615Z" stroke="white" stroke-width="1.5" stroke-linecap="round" stroke-linejoin="round"/>
</svg>
